<?xml version="1.0" standalone="no"?>
<!DOCTYPE svg PUBLIC "-//W3C//DTD SVG 20010904//EN"
 "http://www.w3.org/TR/2001/REC-SVG-20010904/DTD/svg10.dtd">
<svg version="1.0" xmlns="http://www.w3.org/2000/svg"
 width="609.000000pt" height="331.000000pt" viewBox="0 0 609.000000 331.000000"
 preserveAspectRatio="xMidYMid meet">

<g transform="translate(0.000000,331.000000) scale(0.100000,-0.100000)"
fill="#000000" stroke="none">
<path d="M80 1785 l0 -1435 140 0 140 0 0 -140 0 -140 1520 0 1520 0 0 300 0
300 -40 0 -40 0 0 -260 0 -260 -1440 0 -1440 0 0 1355 0 1355 1440 0 1440 0 0
-260 0 -260 40 0 40 0 0 300 0 300 -140 0 -140 0 0 140 0 140 -1520 0 -1520 0
0 -1435z m2960 1255 l0 -100 -1340 0 -1340 0 0 -1255 0 -1255 -100 0 -100 0 0
1355 0 1355 1440 0 1440 0 0 -100z"/>
<path d="M4610 1670 l0 -580 90 0 90 0 0 580 0 580 -90 0 -90 0 0 -580z"/>
<path d="M5000 1670 l0 -580 95 0 95 0 0 580 0 580 -95 0 -95 0 0 -580z"/>
<path d="M3420 2209 c-83 -34 -79 -155 6 -178 44 -12 98 3 119 32 23 32 19 91
-7 122 -26 29 -79 40 -118 24z"/>
<path d="M977 2190 c-98 -25 -186 -91 -225 -169 -35 -73 -38 -175 -5 -236 51
-96 142 -154 351 -226 146 -49 196 -82 213 -138 27 -92 -24 -170 -128 -191
-156 -33 -303 47 -303 165 l0 25 -96 0 -97 0 6 -49 c18 -152 157 -267 352
-290 160 -19 308 22 388 108 54 58 72 106 71 196 -1 158 -99 252 -344 331
-178 57 -239 100 -247 176 -9 94 65 158 185 158 36 0 82 -5 104 -12 52 -15
104 -74 113 -127 l7 -41 95 0 95 0 -7 43 c-19 112 -104 216 -213 258 -44 17
-82 23 -167 25 -60 2 -127 -1 -148 -6z"/>
<path d="M1899 1907 c-109 -31 -197 -113 -240 -224 -27 -73 -37 -227 -19 -304
45 -189 177 -299 359 -301 95 0 150 14 218 58 126 81 190 250 164 439 -29 207
-162 334 -356 342 -45 1 -100 -3 -126 -10z m193 -153 c37 -19 83 -78 98 -127
7 -23 13 -83 12 -133 0 -167 -62 -262 -176 -272 -143 -12 -226 106 -213 303 8
138 61 224 151 245 37 9 91 2 128 -16z"/>
<path d="M2751 1899 c-51 -16 -76 -32 -121 -78 -68 -67 -95 -123 -111 -231
-10 -63 -10 -100 -1 -170 27 -198 131 -314 303 -339 191 -27 359 79 392 247
l7 33 -87 -3 -87 -3 -8 -31 c-4 -18 -24 -46 -43 -62 -83 -74 -222 -46 -269 53
-39 82 -44 242 -10 338 27 77 86 119 165 119 79 0 143 -50 158 -123 l7 -34 84
0 85 0 -3 30 c-11 103 -75 195 -168 241 -76 37 -202 43 -293 13z"/>
<path d="M3977 1910 c-121 -31 -227 -133 -227 -220 0 -19 6 -20 88 -20 l88 0
9 32 c6 19 24 42 45 56 30 20 45 23 102 20 48 -3 73 -9 89 -23 29 -27 49 -76
49 -123 l0 -39 -117 -6 c-209 -11 -302 -55 -352 -167 -52 -115 -3 -253 112
-312 94 -47 222 -40 309 18 27 19 51 34 53 34 1 0 6 -16 9 -35 l7 -35 94 0
c52 0 95 2 95 5 0 2 -7 30 -15 62 -11 43 -15 116 -15 288 0 126 -5 250 -11
274 -16 70 -63 127 -137 163 -55 27 -77 32 -151 35 -47 1 -103 -2 -124 -7z
m243 -518 c0 -75 -1 -79 -32 -110 -116 -111 -293 -65 -275 72 4 31 15 49 42
73 44 38 52 40 173 42 l92 1 0 -78z"/>
<path d="M3370 1500 l0 -410 90 0 90 0 0 410 0 410 -90 0 -90 0 0 -410z"/>
<path d="M5310 1900 c0 -5 64 -190 141 -411 l142 -401 -29 -65 c-36 -81 -65
-105 -139 -111 l-55 -4 0 -68 c0 -77 3 -80 95 -80 126 1 211 89 275 285 13 39
83 245 156 458 74 214 134 393 134 398 0 5 -42 9 -94 9 l-93 0 -78 -262 c-43
-145 -81 -269 -85 -277 -7 -14 -28 46 -145 422 l-37 117 -94 0 c-54 0 -94 -4
-94 -10z"/>
</g>
</svg>
